<?xml version="1.0" encoding="UTF-8"?>
<svg xmlns="http://www.w3.org/2000/svg" xmlns:xlink="http://www.w3.org/1999/xlink" width="50pt" height="50pt" viewBox="0 0 50 50" version="1.1">
<g id="surface1">
<path style=" stroke:none;fill-rule:nonzero;fill:rgb(0%,0%,0%);fill-opacity:1;" d="M 2.503906 50 L 34.171875 50 C 35.550781 50 36.671875 48.878906 36.671875 47.5 L 36.671875 2.5 C 36.671875 1.117188 35.550781 0 34.171875 0 L 11.527344 0 C 10.863281 -0.00390625 10.226562 0.261719 9.761719 0.734375 L 0.738281 9.753906 C 0.265625 10.226562 0.00390625 10.859375 0.00390625 11.523438 L 0.00390625 47.5 C 0.00390625 48.878906 1.125 50 2.503906 50 Z M 35.003906 2.5 L 35.003906 47.5 C 35.003906 47.960938 34.632812 48.332031 34.171875 48.332031 L 2.503906 48.332031 C 2.042969 48.332031 1.667969 47.960938 1.667969 47.5 L 1.667969 11.667969 L 9.167969 11.667969 C 10.550781 11.667969 11.671875 10.546875 11.671875 9.167969 L 11.671875 1.667969 L 34.171875 1.667969 C 34.632812 1.667969 35.003906 2.039062 35.003906 2.5 Z M 10.003906 2.84375 L 10.003906 9.167969 C 10.003906 9.625 9.632812 10 9.167969 10 L 2.847656 10 Z M 10.003906 2.84375 "/>
<path style=" stroke:none;fill-rule:nonzero;fill:rgb(0%,0%,0%);fill-opacity:1;" d="M 46.667969 0 L 41.667969 0 C 39.828125 0 38.335938 1.492188 38.335938 3.332031 L 38.335938 39.613281 C 38.335938 39.996094 38.421875 40.367188 38.585938 40.710938 L 42.652344 49.03125 C 42.925781 49.621094 43.511719 49.996094 44.15625 50 C 44.804688 50.003906 45.394531 49.632812 45.671875 49.046875 L 49.746094 40.714844 C 49.910156 40.375 49.996094 39.996094 49.996094 39.617188 L 49.996094 3.332031 C 49.996094 1.496094 48.507812 0.00390625 46.667969 0 Z M 41.667969 1.667969 L 46.667969 1.667969 C 47.589844 1.667969 48.335938 2.410156 48.335938 3.332031 L 48.335938 6.667969 L 40.003906 6.667969 L 40.003906 3.332031 C 40.003906 2.410156 40.75 1.667969 41.667969 1.667969 Z M 40.503906 40.832031 L 47.835938 40.832031 L 46.203125 44.164062 L 42.132812 44.164062 Z M 45.003906 39.167969 L 45.003906 20.832031 C 45.003906 20.375 44.632812 20 44.167969 20 C 43.710938 20 43.335938 20.375 43.335938 20.832031 L 43.335938 39.167969 L 40.003906 39.167969 L 40.003906 11.667969 L 43.335938 11.667969 L 43.335938 16.667969 C 43.335938 17.125 43.710938 17.5 44.167969 17.5 C 44.632812 17.5 45.003906 17.125 45.003906 16.667969 L 45.003906 11.667969 L 48.335938 11.667969 L 48.335938 39.167969 Z M 48.335938 10 L 40.003906 10 L 40.003906 8.332031 L 48.335938 8.332031 Z M 44.164062 48.316406 L 42.949219 45.832031 L 45.378906 45.832031 Z M 44.164062 48.316406 "/>
<path style=" stroke:none;fill-rule:nonzero;fill:rgb(0%,0%,0%);fill-opacity:1;" d="M 5.835938 14.167969 C 5.378906 14.167969 5.003906 14.539062 5.003906 15 C 5.003906 15.460938 5.378906 15.832031 5.835938 15.832031 L 15.835938 15.832031 C 16.296875 15.832031 16.671875 15.460938 16.671875 15 C 16.671875 14.539062 16.296875 14.167969 15.835938 14.167969 Z M 5.835938 14.167969 "/>
<path style=" stroke:none;fill-rule:nonzero;fill:rgb(0%,0%,0%);fill-opacity:1;" d="M 19.171875 15.832031 L 30.835938 15.832031 C 31.300781 15.832031 31.671875 15.460938 31.671875 15 C 31.671875 14.539062 31.300781 14.167969 30.835938 14.167969 L 19.171875 14.167969 C 18.710938 14.167969 18.335938 14.539062 18.335938 15 C 18.335938 15.460938 18.710938 15.832031 19.171875 15.832031 Z M 19.171875 15.832031 "/>
<path style=" stroke:none;fill-rule:nonzero;fill:rgb(0%,0%,0%);fill-opacity:1;" d="M 30.835938 19.167969 L 5.835938 19.167969 C 5.378906 19.167969 5.003906 19.539062 5.003906 20 C 5.003906 20.460938 5.378906 20.832031 5.835938 20.832031 L 30.835938 20.832031 C 31.300781 20.832031 31.671875 20.460938 31.671875 20 C 31.671875 19.539062 31.300781 19.167969 30.835938 19.167969 Z M 30.835938 19.167969 "/>
<path style=" stroke:none;fill-rule:nonzero;fill:rgb(0%,0%,0%);fill-opacity:1;" d="M 5.835938 25.832031 L 15.835938 25.832031 C 16.296875 25.832031 16.671875 25.460938 16.671875 25 C 16.671875 24.539062 16.296875 24.167969 15.835938 24.167969 L 5.835938 24.167969 C 5.378906 24.167969 5.003906 24.539062 5.003906 25 C 5.003906 25.460938 5.378906 25.832031 5.835938 25.832031 Z M 5.835938 25.832031 "/>
<path style=" stroke:none;fill-rule:nonzero;fill:rgb(0%,0%,0%);fill-opacity:1;" d="M 5.835938 33.332031 L 11.671875 33.332031 C 12.132812 33.332031 12.503906 32.960938 12.503906 32.5 C 12.503906 32.039062 12.132812 31.667969 11.671875 31.667969 L 5.835938 31.667969 C 5.378906 31.667969 5.003906 32.039062 5.003906 32.5 C 5.003906 32.960938 5.378906 33.332031 5.835938 33.332031 Z M 5.835938 33.332031 "/>
<path style=" stroke:none;fill-rule:nonzero;fill:rgb(0%,0%,0%);fill-opacity:1;" d="M 30.835938 31.667969 L 15.003906 31.667969 C 14.542969 31.667969 14.171875 32.039062 14.171875 32.5 C 14.171875 32.960938 14.542969 33.332031 15.003906 33.332031 L 30.835938 33.332031 C 31.300781 33.332031 31.671875 32.960938 31.671875 32.5 C 31.671875 32.039062 31.300781 31.667969 30.835938 31.667969 Z M 30.835938 31.667969 "/>
<path style=" stroke:none;fill-rule:nonzero;fill:rgb(0%,0%,0%);fill-opacity:1;" d="M 23.335938 37.5 C 23.335938 37.039062 22.964844 36.667969 22.503906 36.667969 L 5.835938 36.667969 C 5.378906 36.667969 5.003906 37.039062 5.003906 37.5 C 5.003906 37.960938 5.378906 38.332031 5.835938 38.332031 L 22.503906 38.332031 C 22.964844 38.332031 23.335938 37.960938 23.335938 37.5 Z M 23.335938 37.5 "/>
<path style=" stroke:none;fill-rule:nonzero;fill:rgb(0%,0%,0%);fill-opacity:1;" d="M 30.835938 43.332031 L 19.171875 43.332031 C 18.710938 43.332031 18.335938 43.707031 18.335938 44.164062 C 18.335938 44.625 18.710938 45 19.171875 45 L 30.835938 45 C 31.300781 45 31.671875 44.625 31.671875 44.164062 C 31.671875 43.707031 31.300781 43.332031 30.835938 43.332031 Z M 30.835938 43.332031 "/>
</g>
</svg>
