<?xml version="1.0" encoding="UTF-8"?>
<svg xmlns="http://www.w3.org/2000/svg" xmlns:xlink="http://www.w3.org/1999/xlink" width="50pt" height="50pt" viewBox="0 0 50 50" version="1.1">
<g id="surface1">
<path style=" stroke:none;fill-rule:nonzero;fill:rgb(0%,0%,0%);fill-opacity:1;" d="M 40.832031 2.082031 C 39.28125 2.082031 37.757812 2.476562 36.402344 3.230469 C 35.964844 3.023438 35.484375 2.917969 35 2.917969 L 10 2.917969 C 8.160156 2.917969 6.667969 4.410156 6.667969 6.25 L 6.667969 7.917969 C 4.828125 7.917969 3.332031 9.410156 3.332031 11.25 L 3.332031 12.917969 C 1.492188 12.917969 0 14.410156 0 16.25 L 0 44.582031 C 0 46.421875 1.492188 47.917969 3.332031 47.917969 L 41.667969 47.917969 C 43.507812 47.917969 45 46.421875 45 44.582031 L 45 19.40625 C 48.773438 17.480469 50.734375 13.21875 49.746094 9.101562 C 48.753906 4.984375 45.066406 2.078125 40.832031 2.082031 Z M 34.5625 4.582031 C 33.570312 5.511719 32.800781 6.652344 32.300781 7.917969 L 13.289062 7.917969 L 9.683594 4.617188 C 9.789062 4.59375 9.890625 4.585938 10 4.582031 Z M 8.332031 6.25 C 8.335938 6.070312 8.367188 5.894531 8.425781 5.726562 L 10.824219 7.917969 L 8.332031 7.917969 Z M 31.828125 9.582031 C 31.613281 10.683594 31.613281 11.816406 31.828125 12.917969 L 9.957031 12.917969 L 6.347656 9.617188 C 6.453125 9.59375 6.558594 9.585938 6.667969 9.582031 Z M 5 11.25 C 5.003906 11.070312 5.035156 10.894531 5.09375 10.726562 L 7.488281 12.917969 L 5 12.917969 Z M 32.300781 14.582031 C 33.128906 16.6875 34.703125 18.410156 36.722656 19.429688 L 25.386719 29.800781 L 24.761719 30.378906 C 23.480469 31.539062 21.523438 31.539062 20.238281 30.378906 L 3.015625 14.613281 C 3.121094 14.59375 3.226562 14.582031 3.332031 14.582031 Z M 1.761719 45.105469 C 1.699219 44.9375 1.667969 44.761719 1.667969 44.582031 L 1.667969 16.25 C 1.667969 16.070312 1.699219 15.894531 1.757812 15.726562 L 17.816406 30.417969 Z M 3.332031 46.25 C 3.226562 46.25 3.121094 46.238281 3.015625 46.21875 L 19.046875 31.550781 L 19.113281 31.609375 C 21.035156 33.351562 23.96875 33.351562 25.890625 31.609375 L 25.953125 31.554688 L 41.984375 46.21875 C 41.878906 46.242188 41.773438 46.25 41.667969 46.25 Z M 43.332031 44.582031 C 43.328125 44.761719 43.300781 44.9375 43.242188 45.105469 L 27.183594 30.417969 L 38.460938 20.09375 C 40.058594 20.535156 41.742188 20.523438 43.332031 20.0625 Z M 40.832031 18.75 C 36.691406 18.75 33.332031 15.394531 33.332031 11.25 C 33.332031 7.105469 36.691406 3.75 40.832031 3.75 C 44.976562 3.75 48.332031 7.105469 48.332031 11.25 C 48.328125 15.390625 44.972656 18.746094 40.832031 18.75 Z M 40.832031 18.75 "/>
<path style=" stroke:none;fill-rule:nonzero;fill:rgb(0%,0%,0%);fill-opacity:1;" d="M 41.152344 5.480469 C 40.84375 5.351562 40.484375 5.421875 40.246094 5.660156 L 38.578125 7.328125 C 38.261719 7.652344 38.265625 8.171875 38.589844 8.496094 C 38.910156 8.816406 39.429688 8.820312 39.757812 8.503906 L 40 8.261719 L 40 16.25 C 40 16.710938 40.375 17.082031 40.832031 17.082031 C 41.292969 17.082031 41.667969 16.710938 41.667969 16.25 L 41.667969 6.25 C 41.667969 5.914062 41.464844 5.609375 41.152344 5.480469 Z M 41.152344 5.480469 "/>
<path style=" stroke:none;fill-rule:nonzero;fill:rgb(0%,0%,0%);fill-opacity:1;" d="M 10.832031 17.917969 L 12.5 17.917969 C 12.960938 17.917969 13.332031 17.542969 13.332031 17.082031 C 13.332031 16.625 12.960938 16.25 12.5 16.25 L 10.832031 16.25 C 10.375 16.25 10 16.625 10 17.082031 C 10 17.542969 10.375 17.917969 10.832031 17.917969 Z M 10.832031 17.917969 "/>
<path style=" stroke:none;fill-rule:nonzero;fill:rgb(0%,0%,0%);fill-opacity:1;" d="M 15.832031 17.917969 L 29.167969 17.917969 C 29.625 17.917969 30 17.542969 30 17.082031 C 30 16.625 29.625 16.25 29.167969 16.25 L 15.832031 16.25 C 15.375 16.25 15 16.625 15 17.082031 C 15 17.542969 15.375 17.917969 15.832031 17.917969 Z M 15.832031 17.917969 "/>
</g>
</svg>
