<?xml version="1.0" encoding="utf-8"?>
<!-- Generator: Adobe Illustrator 16.0.0, SVG Export Plug-In . SVG Version: 6.00 Build 0)  -->
<!DOCTYPE svg PUBLIC "-//W3C//DTD SVG 1.1//EN" "http://www.w3.org/Graphics/SVG/1.1/DTD/svg11.dtd">
<svg version="1.1" id="Layer_1" xmlns="http://www.w3.org/2000/svg" xmlns:xlink="http://www.w3.org/1999/xlink" x="0px" y="0px"
	 width="40.606px" height="48.281px" viewBox="0 0 40.606 48.281" enable-background="new 0 0 40.606 48.281" xml:space="preserve">
<path fill="none" stroke="#4C4B4C" stroke-width="1.5" stroke-linecap="round" stroke-linejoin="round" stroke-miterlimit="10" d="
	M25.757,41.771c0,0.672-0.542,1.216-1.215,1.216h-8.593c-0.671,0-1.214-0.544-1.214-1.216l0,0c0-0.672,0.543-1.216,1.214-1.216
	h8.593C25.215,40.555,25.757,41.099,25.757,41.771L25.757,41.771z"/>
<path fill="none" stroke="#4C4B4C" stroke-width="1.5" stroke-linecap="round" stroke-linejoin="round" stroke-miterlimit="10" d="
	M25.151,46.304c0,0.679-0.484,1.228-1.079,1.228h-7.65c-0.598,0-1.082-0.549-1.082-1.228l0,0c0-0.679,0.484-1.228,1.082-1.228h7.65
	C24.667,45.076,25.151,45.625,25.151,46.304L25.151,46.304z"/>
<line fill="none" stroke="#4C4B4C" stroke-width="1.5" stroke-linecap="round" stroke-linejoin="round" stroke-miterlimit="10" x1="0.75" y1="11.679" x2="5.419" y2="14.281"/>
<line fill="none" stroke="#4C4B4C" stroke-width="1.5" stroke-linecap="round" stroke-linejoin="round" stroke-miterlimit="10" x1="8.169" y1="3.781" x2="10.879" y2="8.072"/>
<line fill="none" stroke="#4C4B4C" stroke-width="1.5" stroke-linecap="round" stroke-linejoin="round" stroke-miterlimit="10" x1="20.223" y1="0.75" x2="20.191" y2="5.469"/>
<line fill="none" stroke="#4C4B4C" stroke-width="1.5" stroke-linecap="round" stroke-linejoin="round" stroke-miterlimit="10" x1="32.606" y1="3.781" x2="29.544" y2="8.531"/>
<line fill="none" stroke="#4C4B4C" stroke-width="1.5" stroke-linecap="round" stroke-linejoin="round" stroke-miterlimit="10" x1="39.856" y1="11.948" x2="35.044" y2="14.281"/>
<path fill="#FFD517" stroke="#4C4B4C" stroke-width="1.5" stroke-linejoin="round" stroke-miterlimit="10" d="M28.79,14.164
	c-1.871-1.945-5.217-3.564-8.541-3.57c-3.345-0.005-6.283,1.109-8.584,3.688c-2.736,3.065-4,7-2.875,10.75
	c1.434,4.779,3.5,5.75,4.349,7.291c1.343,2.438,1.27,5.959,1.27,5.959h5.841h5.842c0,0-0.073-3.521,1.27-5.959
	c0.849-1.541,2.915-2.512,4.349-7.291C32.834,21.281,31.639,17.124,28.79,14.164z"/>
<path fill="none" stroke="#4C4B4C" stroke-width="1.5" stroke-linecap="round" stroke-linejoin="round" stroke-miterlimit="10" d="
	M20.631,14.165c0,0,7.79-0.321,9.04,8.991"/>
</svg>
