<?xml version="1.0" encoding="UTF-8"?>
<svg xmlns="http://www.w3.org/2000/svg" xmlns:xlink="http://www.w3.org/1999/xlink" width="50pt" height="50pt" viewBox="0 0 50 50" version="1.1">
<g id="surface1">
<path style=" stroke:none;fill-rule:nonzero;fill:rgb(0%,0%,0%);fill-opacity:1;" d="M 6.667969 39.167969 L 12.5 39.167969 C 13.882812 39.167969 15 38.046875 15 36.667969 L 15 25 C 14.996094 23.945312 14.328125 23.003906 13.332031 22.652344 L 13.332031 18.332031 C 13.332031 11.890625 18.558594 6.667969 25 6.667969 C 31.441406 6.667969 36.667969 11.890625 36.667969 18.332031 L 36.667969 22.652344 C 35.671875 23.003906 35.003906 23.945312 35 25 L 35 36.667969 C 35 38.046875 36.117188 39.167969 37.5 39.167969 L 42.5 39.167969 L 42.5 40 C 42.496094 43.21875 39.886719 45.828125 36.667969 45.832031 L 30.714844 45.832031 C 30.335938 44.367188 29.015625 43.339844 27.5 43.332031 L 22.5 43.332031 C 20.660156 43.332031 19.167969 44.828125 19.167969 46.667969 C 19.167969 48.507812 20.660156 50 22.5 50 L 27.5 50 C 29.015625 49.996094 30.335938 48.96875 30.714844 47.5 L 36.667969 47.5 C 40.804688 47.496094 44.164062 44.140625 44.167969 40 L 44.167969 39.09375 C 46.570312 38.683594 48.328125 36.605469 48.332031 34.167969 L 48.332031 27.5 C 48.328125 24.738281 46.09375 22.503906 43.332031 22.5 L 43.332031 18.332031 C 43.332031 8.207031 35.125 0 25 0 C 14.875 0 6.667969 8.207031 6.667969 18.332031 L 6.667969 22.5 C 3.90625 22.503906 1.667969 24.738281 1.667969 27.5 L 1.667969 34.167969 C 1.667969 36.925781 3.90625 39.164062 6.667969 39.167969 Z M 27.5 48.332031 L 22.5 48.332031 C 21.578125 48.332031 20.832031 47.589844 20.832031 46.667969 C 20.832031 45.746094 21.578125 45 22.5 45 L 27.5 45 C 28.421875 45 29.167969 45.746094 29.167969 46.667969 C 29.167969 47.589844 28.421875 48.332031 27.5 48.332031 Z M 13.332031 36.667969 C 13.332031 37.125 12.960938 37.5 12.5 37.5 L 10 37.5 L 10 24.167969 L 12.5 24.167969 C 12.960938 24.167969 13.332031 24.542969 13.332031 25 Z M 36.667969 36.667969 L 36.667969 25 C 36.667969 24.539062 37.042969 24.167969 37.5 24.167969 L 40 24.167969 L 40 37.5 L 37.5 37.5 C 37.039062 37.5 36.667969 37.125 36.667969 36.667969 Z M 46.667969 27.5 L 46.667969 34.167969 C 46.667969 36.007812 45.171875 37.5 43.332031 37.5 L 41.667969 37.5 L 41.667969 24.167969 L 43.332031 24.167969 C 45.171875 24.167969 46.667969 25.660156 46.667969 27.5 Z M 8.332031 18.332031 C 8.332031 9.128906 15.796875 1.667969 25 1.667969 C 34.203125 1.667969 41.667969 9.128906 41.667969 18.332031 L 41.667969 22.5 L 38.332031 22.5 L 38.332031 18.332031 C 38.332031 10.96875 32.363281 5 25 5 C 17.636719 5 11.667969 10.96875 11.667969 18.332031 L 11.667969 22.5 L 8.332031 22.5 Z M 3.332031 27.5 C 3.332031 25.660156 4.828125 24.167969 6.667969 24.167969 L 8.332031 24.167969 L 8.332031 37.5 L 6.667969 37.5 C 4.828125 37.5 3.332031 36.007812 3.332031 34.167969 Z M 3.332031 27.5 "/>
<path style=" stroke:none;fill-rule:nonzero;fill:rgb(0%,0%,0%);fill-opacity:1;" d="M 35 18.332031 C 35 12.808594 30.523438 8.332031 25 8.332031 C 19.476562 8.332031 15 12.808594 15 18.332031 C 15 23.855469 19.476562 28.332031 25 28.332031 C 30.519531 28.328125 34.996094 23.851562 35 18.332031 Z M 16.667969 18.332031 C 16.667969 13.730469 20.398438 10 25 10 C 29.601562 10 33.332031 13.730469 33.332031 18.332031 C 33.332031 22.933594 29.601562 26.667969 25 26.667969 C 20.398438 26.664062 16.671875 22.933594 16.667969 18.332031 Z M 16.667969 18.332031 "/>
<path style=" stroke:none;fill-rule:nonzero;fill:rgb(0%,0%,0%);fill-opacity:1;" d="M 25.832031 12.5 C 25.832031 12.960938 25.460938 13.332031 25 13.332031 C 24.539062 13.332031 24.167969 12.960938 24.167969 12.5 C 24.167969 12.039062 24.539062 11.667969 25 11.667969 C 25.460938 11.667969 25.832031 12.039062 25.832031 12.5 Z M 25.832031 12.5 "/>
<path style=" stroke:none;fill-rule:nonzero;fill:rgb(0%,0%,0%);fill-opacity:1;" d="M 26.667969 25 C 27.125 25 27.5 24.625 27.5 24.167969 C 27.5 23.707031 27.125 23.332031 26.667969 23.332031 L 25.832031 23.332031 L 25.832031 15.832031 C 25.832031 15.375 25.460938 15 25 15 L 23.332031 15 C 22.875 15 22.5 15.375 22.5 15.832031 C 22.5 16.292969 22.875 16.667969 23.332031 16.667969 L 24.167969 16.667969 L 24.167969 23.332031 L 23.332031 23.332031 C 22.875 23.332031 22.5 23.707031 22.5 24.167969 C 22.5 24.625 22.875 25 23.332031 25 Z M 26.667969 25 "/>
</g>
</svg>
