<?xml version="1.0" encoding="UTF-8"?>
<svg xmlns="http://www.w3.org/2000/svg" xmlns:xlink="http://www.w3.org/1999/xlink" width="50pt" height="50pt" viewBox="0 0 50 50" version="1.1">
<g id="surface1">
<path style=" stroke:none;fill-rule:nonzero;fill:rgb(0%,0%,0%);fill-opacity:1;" d="M 47.5 0 L 2.5 0 C 1.078125 0.046875 -0.0351562 1.230469 0 2.652344 L 0 39.015625 C -0.0351562 40.433594 1.078125 41.621094 2.5 41.664062 L 16.984375 41.664062 L 15.320312 45 L 12.5 45 C 11.121094 45 10 46.117188 10 47.5 C 10 48.878906 11.121094 50 12.5 50 L 37.5 50 C 38.878906 50 40 48.878906 40 47.5 C 40 46.117188 38.878906 45 37.5 45 L 34.679688 45 L 33.015625 41.664062 L 47.5 41.664062 C 48.921875 41.621094 50.035156 40.433594 50 39.015625 L 50 2.652344 C 50.035156 1.230469 48.921875 0.046875 47.5 0 Z M 2.5 1.667969 L 47.5 1.667969 C 47.996094 1.71875 48.363281 2.152344 48.332031 2.652344 L 48.332031 35 L 28.148438 35 L 27.066406 30.679688 C 26.273438 27.484375 23.476562 25.179688 20.1875 25.015625 C 20.777344 24.273438 21.210938 23.417969 21.449219 22.5 L 21.667969 22.5 C 22.972656 22.507812 24.164062 21.742188 24.703125 20.550781 C 25.242188 19.363281 25.035156 17.964844 24.167969 16.984375 L 24.167969 15.832031 C 24.167969 10.773438 20.0625 6.667969 15 6.667969 C 9.9375 6.667969 5.835938 10.773438 5.835938 15.832031 L 5.835938 16.984375 C 4.96875 17.964844 4.757812 19.363281 5.296875 20.550781 C 5.835938 21.742188 7.027344 22.507812 8.335938 22.5 L 8.550781 22.5 C 8.789062 23.421875 9.222656 24.277344 9.816406 25.015625 C 6.527344 25.183594 3.730469 27.484375 2.933594 30.683594 L 1.851562 35 L 1.667969 35 L 1.667969 2.652344 C 1.636719 2.152344 2.003906 1.71875 2.5 1.667969 Z M 21.667969 30.832031 C 21.207031 30.832031 20.832031 31.207031 20.832031 31.667969 L 20.832031 35 L 15.832031 35 L 15.832031 30.183594 L 17.007812 30.417969 C 17.742188 30.5625 18.507812 30.375 19.085938 29.898438 C 19.664062 29.425781 20 28.714844 20 27.964844 L 20 26.683594 C 22.59375 26.769531 24.820312 28.566406 25.449219 31.085938 L 26.429688 35 L 22.5 35 L 22.5 31.664062 C 22.5 31.207031 22.125 30.832031 21.667969 30.832031 Z M 8.335938 30.832031 C 7.875 30.832031 7.5 31.207031 7.5 31.667969 L 7.5 35 L 3.570312 35 L 4.550781 31.085938 C 5.179688 28.566406 7.40625 26.769531 10 26.683594 L 10 27.964844 C 10.003906 28.714844 10.335938 29.425781 10.914062 29.898438 C 11.496094 30.375 12.257812 30.5625 12.992188 30.417969 L 14.167969 30.183594 L 14.167969 35 L 9.167969 35 L 9.167969 31.667969 C 9.167969 31.207031 8.792969 30.832031 8.335938 30.832031 Z M 8.335938 17.5 L 8.335938 20.832031 C 7.414062 20.832031 6.667969 20.085938 6.667969 19.167969 C 6.667969 18.246094 7.414062 17.5 8.335938 17.5 Z M 8.335938 15.832031 C 8.050781 15.835938 7.769531 15.875 7.5 15.953125 L 7.5 15.832031 C 7.5 11.691406 10.859375 8.335938 15 8.335938 C 19.144531 8.335938 22.5 11.691406 22.5 15.832031 L 22.5 15.953125 C 22.230469 15.875 21.949219 15.835938 21.667969 15.832031 L 21.609375 15.832031 C 21.191406 12.503906 18.359375 10 15 10 C 11.644531 10 8.808594 12.503906 8.390625 15.832031 Z M 11.667969 26.667969 L 11.78125 26.667969 C 12.519531 27.074219 13.328125 27.339844 14.167969 27.441406 L 14.167969 28.484375 L 12.664062 28.785156 C 12.421875 28.832031 12.167969 28.773438 11.972656 28.613281 C 11.78125 28.453125 11.667969 28.21875 11.667969 27.964844 Z M 15.832031 27.441406 C 16.671875 27.339844 17.480469 27.074219 18.21875 26.667969 L 18.332031 26.667969 L 18.332031 27.964844 C 18.332031 28.21875 18.21875 28.453125 18.027344 28.613281 C 17.835938 28.773438 17.578125 28.832031 17.335938 28.785156 L 15.832031 28.484375 Z M 15 25.832031 C 12.242188 25.832031 10.003906 23.59375 10 20.832031 L 10 18.402344 C 11.652344 18.492188 14.984375 18.472656 16.574219 17.050781 C 16.609375 17.019531 16.644531 16.988281 16.679688 16.957031 C 17.4375 18.097656 18.640625 18.875 20 19.097656 L 20 20.832031 C 20 20.925781 19.992188 21.015625 19.984375 21.109375 L 16.507812 22.5 L 15 22.5 C 14.539062 22.5 14.167969 22.875 14.167969 23.332031 C 14.167969 23.792969 14.539062 24.167969 15 24.167969 L 16.667969 24.167969 C 16.773438 24.167969 16.878906 24.144531 16.976562 24.105469 L 19.441406 23.121094 C 18.585938 24.785156 16.871094 25.832031 15 25.832031 Z M 20 17.398438 C 18.765625 17.023438 17.816406 16.039062 17.476562 14.796875 C 17.375 14.390625 16.984375 14.121094 16.566406 14.171875 C 16.148438 14.222656 15.835938 14.578125 15.832031 15 C 15.84375 15.3125 15.707031 15.609375 15.464844 15.808594 C 14.484375 16.6875 11.851562 16.839844 10 16.734375 L 10 16.667969 C 10 13.90625 12.238281 11.667969 15 11.667969 C 17.761719 11.667969 20 13.90625 20 16.667969 Z M 21.667969 20.832031 L 21.667969 17.5 C 22.585938 17.5 23.332031 18.246094 23.332031 19.167969 C 23.332031 20.085938 22.585938 20.832031 21.667969 20.832031 Z M 38.332031 47.5 C 38.332031 47.960938 37.960938 48.332031 37.5 48.332031 L 12.5 48.332031 C 12.039062 48.332031 11.667969 47.960938 11.667969 47.5 C 11.667969 47.039062 12.039062 46.664062 12.5 46.664062 L 37.5 46.664062 C 37.960938 46.664062 38.332031 47.039062 38.332031 47.5 Z M 32.816406 45 L 17.183594 45 L 18.847656 41.664062 L 31.152344 41.664062 Z M 47.5 40 L 2.5 40 C 2.003906 39.949219 1.636719 39.515625 1.667969 39.015625 L 1.667969 36.664062 L 48.332031 36.664062 L 48.332031 39.015625 C 48.363281 39.515625 47.996094 39.949219 47.5 40 Z M 47.5 40 "/>
<path style=" stroke:none;fill-rule:nonzero;fill:rgb(0%,0%,0%);fill-opacity:1;" d="M 30 18.265625 L 30 20 C 29.996094 20.652344 30.375 21.246094 30.96875 21.515625 C 31.1875 21.617188 31.429688 21.671875 31.671875 21.671875 C 32.050781 21.667969 32.417969 21.539062 32.710938 21.296875 L 36.90625 18.382812 C 36.929688 18.367188 36.953125 18.351562 36.976562 18.332031 L 40.832031 18.332031 C 44.054688 18.328125 46.664062 15.71875 46.664062 12.5 L 46.664062 9.167969 C 46.664062 5.945312 44.054688 3.335938 40.832031 3.335938 L 30.832031 3.335938 C 27.613281 3.335938 25.003906 5.945312 25 9.167969 L 25 12.5 C 25.007812 15.394531 27.136719 17.847656 30 18.265625 Z M 26.667969 9.167969 C 26.671875 6.867188 28.53125 5.003906 30.832031 5 L 40.832031 5 C 43.132812 5.003906 44.996094 6.867188 45 9.167969 L 45 12.5 C 44.996094 14.800781 43.132812 16.664062 40.832031 16.667969 L 36.976562 16.667969 C 36.59375 16.667969 36.226562 16.796875 35.929688 17.035156 L 31.734375 19.953125 C 31.710938 19.96875 31.6875 19.984375 31.667969 20 L 31.667969 18.265625 C 31.664062 17.441406 31.058594 16.742188 30.242188 16.625 C 28.195312 16.320312 26.675781 14.570312 26.667969 12.5 Z M 26.667969 9.167969 "/>
<path style=" stroke:none;fill-rule:nonzero;fill:rgb(0%,0%,0%);fill-opacity:1;" d="M 30 10 L 41.664062 10 C 42.125 10 42.5 9.625 42.5 9.167969 C 42.5 8.707031 42.125 8.335938 41.664062 8.335938 L 30 8.335938 C 29.539062 8.335938 29.167969 8.707031 29.167969 9.167969 C 29.167969 9.625 29.539062 10 30 10 Z M 30 10 "/>
<path style=" stroke:none;fill-rule:nonzero;fill:rgb(0%,0%,0%);fill-opacity:1;" d="M 30 13.335938 L 35.832031 13.335938 C 36.292969 13.335938 36.664062 12.960938 36.664062 12.5 C 36.664062 12.039062 36.292969 11.667969 35.832031 11.667969 L 30 11.667969 C 29.539062 11.667969 29.167969 12.039062 29.167969 12.5 C 29.167969 12.960938 29.539062 13.335938 30 13.335938 Z M 30 13.335938 "/>
</g>
</svg>
