<?xml version="1.0" encoding="UTF-8"?>
<svg xmlns="http://www.w3.org/2000/svg" xmlns:xlink="http://www.w3.org/1999/xlink" width="50pt" height="50pt" viewBox="0 0 50 50" version="1.1">
<g id="surface1">
<path style=" stroke:none;fill-rule:nonzero;fill:rgb(0%,0%,0%);fill-opacity:1;" d="M 5.835938 16.667969 L 15.835938 16.667969 C 16.296875 16.667969 16.671875 16.292969 16.671875 15.832031 C 16.671875 15.375 16.296875 15 15.835938 15 L 5.835938 15 C 5.375 15 5.003906 15.375 5.003906 15.832031 C 5.003906 16.292969 5.375 16.667969 5.835938 16.667969 Z M 5.835938 16.667969 "/>
<path style=" stroke:none;fill-rule:nonzero;fill:rgb(0%,0%,0%);fill-opacity:1;" d="M 19.171875 16.667969 L 24.171875 16.667969 C 24.628906 16.667969 25.003906 16.292969 25.003906 15.832031 C 25.003906 15.375 24.628906 15 24.171875 15 L 19.171875 15 C 18.707031 15 18.335938 15.375 18.335938 15.832031 C 18.335938 16.292969 18.707031 16.667969 19.171875 16.667969 Z M 19.171875 16.667969 "/>
<path style=" stroke:none;fill-rule:nonzero;fill:rgb(0%,0%,0%);fill-opacity:1;" d="M 5.835938 21.667969 L 27.503906 21.667969 C 27.964844 21.667969 28.335938 21.292969 28.335938 20.832031 C 28.335938 20.375 27.964844 20 27.503906 20 L 5.835938 20 C 5.375 20 5.003906 20.375 5.003906 20.832031 C 5.003906 21.292969 5.375 21.667969 5.835938 21.667969 Z M 5.835938 21.667969 "/>
<path style=" stroke:none;fill-rule:nonzero;fill:rgb(0%,0%,0%);fill-opacity:1;" d="M 5.835938 26.667969 L 15.835938 26.667969 C 16.296875 26.667969 16.671875 26.292969 16.671875 25.832031 C 16.671875 25.375 16.296875 25 15.835938 25 L 5.835938 25 C 5.375 25 5.003906 25.375 5.003906 25.832031 C 5.003906 26.292969 5.375 26.667969 5.835938 26.667969 Z M 5.835938 26.667969 "/>
<path style=" stroke:none;fill-rule:nonzero;fill:rgb(0%,0%,0%);fill-opacity:1;" d="M 5.835938 31.667969 L 11.671875 31.667969 C 12.128906 31.667969 12.503906 31.292969 12.503906 30.832031 C 12.503906 30.375 12.128906 30 11.671875 30 L 5.835938 30 C 5.375 30 5.003906 30.375 5.003906 30.832031 C 5.003906 31.292969 5.375 31.667969 5.835938 31.667969 Z M 5.835938 31.667969 "/>
<path style=" stroke:none;fill-rule:nonzero;fill:rgb(0%,0%,0%);fill-opacity:1;" d="M 14.171875 30.832031 C 14.171875 31.292969 14.539062 31.667969 15.003906 31.667969 L 30.835938 31.667969 C 31.296875 31.667969 31.671875 31.292969 31.671875 30.832031 C 31.671875 30.375 31.296875 30 30.835938 30 L 15.003906 30 C 14.539062 30 14.171875 30.375 14.171875 30.832031 Z M 14.171875 30.832031 "/>
<path style=" stroke:none;fill-rule:nonzero;fill:rgb(0%,0%,0%);fill-opacity:1;" d="M 5.835938 36.667969 L 22.503906 36.667969 C 22.964844 36.667969 23.335938 36.292969 23.335938 35.832031 C 23.335938 35.375 22.960938 35 22.503906 35 L 5.835938 35 C 5.375 35 5.003906 35.375 5.003906 35.832031 C 5.003906 36.292969 5.375 36.667969 5.835938 36.667969 Z M 5.835938 36.667969 "/>
<path style=" stroke:none;fill-rule:nonzero;fill:rgb(0%,0%,0%);fill-opacity:1;" d="M 10.003906 40 L 5.835938 40 C 5.375 40 5.003906 40.375 5.003906 40.832031 C 5.003906 41.292969 5.375 41.667969 5.835938 41.667969 L 10.003906 41.667969 C 10.464844 41.667969 10.835938 41.292969 10.835938 40.832031 C 10.835938 40.375 10.460938 40 10.003906 40 Z M 10.003906 40 "/>
<path style=" stroke:none;fill-rule:nonzero;fill:rgb(0%,0%,0%);fill-opacity:1;" d="M 30.835938 40 L 13.335938 40 C 12.875 40 12.503906 40.375 12.503906 40.832031 C 12.503906 41.292969 12.875 41.667969 13.335938 41.667969 L 30.835938 41.667969 C 31.296875 41.667969 31.671875 41.292969 31.671875 40.832031 C 31.671875 40.375 31.296875 40 30.835938 40 Z M 30.835938 40 "/>
<path style=" stroke:none;fill-rule:nonzero;fill:rgb(0%,0%,0%);fill-opacity:1;" d="M 38.335938 0 C 37.367188 0.00390625 36.40625 0.128906 35.472656 0.371094 C 35.082031 0.125 34.628906 -0.00390625 34.171875 0 L 11.527344 0 C 10.863281 -0.00390625 10.222656 0.265625 9.753906 0.734375 L 0.738281 9.75 C 0.265625 10.21875 0 10.859375 0.00390625 11.527344 L 0.00390625 47.5 C 0.00390625 48.882812 1.121094 50 2.503906 50 L 34.171875 50 C 35.550781 50 36.671875 48.882812 36.671875 47.5 L 36.671875 23.199219 C 40.992188 23.824219 45.296875 21.984375 47.832031 18.429688 C 50.367188 14.875 50.703125 10.199219 48.703125 6.316406 C 46.703125 2.4375 42.703125 0 38.335938 0 Z M 10.003906 2.84375 L 10.003906 9.167969 C 10.003906 9.625 9.628906 10 9.167969 10 L 2.847656 10 Z M 35.003906 47.5 C 35.003906 47.960938 34.628906 48.332031 34.171875 48.332031 L 2.503906 48.332031 C 2.039062 48.332031 1.667969 47.960938 1.667969 47.5 L 1.667969 11.667969 L 9.167969 11.667969 C 10.550781 11.667969 11.671875 10.546875 11.671875 9.167969 L 11.671875 1.667969 L 32.359375 1.667969 C 28.382812 4.03125 26.183594 8.527344 26.757812 13.117188 C 27.332031 17.710938 30.566406 21.527344 35.003906 22.84375 Z M 38.335938 21.667969 C 32.8125 21.667969 28.335938 17.191406 28.335938 11.667969 C 28.335938 6.144531 32.8125 1.667969 38.335938 1.667969 C 43.855469 1.667969 48.335938 6.144531 48.335938 11.667969 C 48.328125 17.1875 43.855469 21.660156 38.335938 21.667969 Z M 38.335938 21.667969 "/>
<path style=" stroke:none;fill-rule:nonzero;fill:rgb(0%,0%,0%);fill-opacity:1;" d="M 39.171875 5.832031 C 39.171875 6.292969 38.796875 6.667969 38.335938 6.667969 C 37.875 6.667969 37.503906 6.292969 37.503906 5.832031 C 37.503906 5.375 37.875 5 38.335938 5 C 38.796875 5 39.171875 5.375 39.171875 5.832031 Z M 39.171875 5.832031 "/>
<path style=" stroke:none;fill-rule:nonzero;fill:rgb(0%,0%,0%);fill-opacity:1;" d="M 40.835938 16.667969 L 39.171875 16.667969 L 39.171875 9.167969 C 39.171875 8.707031 38.796875 8.332031 38.335938 8.332031 L 36.671875 8.332031 C 36.207031 8.332031 35.835938 8.707031 35.835938 9.167969 C 35.835938 9.625 36.207031 10 36.671875 10 L 37.503906 10 L 37.503906 16.667969 L 35.835938 16.667969 C 35.375 16.667969 35.003906 17.039062 35.003906 17.5 C 35.003906 17.960938 35.375 18.332031 35.835938 18.332031 L 40.835938 18.332031 C 41.296875 18.332031 41.667969 17.960938 41.667969 17.5 C 41.667969 17.039062 41.296875 16.667969 40.835938 16.667969 Z M 40.835938 16.667969 "/>
</g>
</svg>
