<?xml version="1.0" encoding="UTF-8"?>
<svg xmlns="http://www.w3.org/2000/svg" xmlns:xlink="http://www.w3.org/1999/xlink" width="50pt" height="50pt" viewBox="0 0 50 50" version="1.1">
<g id="surface1">
<path style=" stroke:none;fill-rule:nonzero;fill:rgb(0%,0%,0%);fill-opacity:1;" d="M 39.457031 50 C 41.625 49.972656 43.355469 48.195312 43.332031 46.03125 L 43.332031 25.636719 C 43.355469 23.472656 41.625 21.695312 39.457031 21.667969 L 10.539062 21.667969 C 8.375 21.695312 6.644531 23.472656 6.667969 25.636719 L 6.667969 46.03125 C 6.644531 48.195312 8.375 49.972656 10.542969 50 Z M 10.539062 48.332031 C 10.117188 48.332031 9.703125 48.203125 9.351562 47.964844 L 22.117188 36.867188 L 22.808594 37.464844 C 24.066406 38.546875 25.929688 38.546875 27.183594 37.464844 L 27.875 36.867188 L 40.644531 47.964844 C 40.292969 48.203125 39.878906 48.332031 39.457031 48.332031 Z M 8.332031 46.03125 L 8.332031 25.636719 C 8.335938 25.40625 8.371094 25.179688 8.441406 24.964844 L 20.855469 35.757812 L 8.40625 46.585938 C 8.359375 46.402344 8.335938 46.214844 8.332031 46.03125 Z M 41.558594 24.964844 C 41.628906 25.179688 41.664062 25.40625 41.667969 25.636719 L 41.667969 46.03125 C 41.664062 46.214844 41.640625 46.402344 41.59375 46.585938 L 29.144531 35.757812 Z M 39.457031 23.332031 C 39.839844 23.335938 40.210938 23.441406 40.539062 23.640625 L 26.097656 36.203125 C 25.464844 36.746094 24.535156 36.746094 23.90625 36.203125 L 9.460938 23.640625 C 9.789062 23.441406 10.160156 23.335938 10.542969 23.332031 Z M 39.457031 23.332031 "/>
<path style=" stroke:none;fill-rule:nonzero;fill:rgb(0%,0%,0%);fill-opacity:1;" d="M 25 0 C 8.878906 0 0 3.550781 0 10 L 0 16.667969 C 0 18.507812 1.492188 20 3.332031 20 L 13.332031 20 C 15.171875 20 16.667969 18.507812 16.667969 16.667969 L 16.667969 11.4375 C 16.664062 11.019531 16.96875 10.667969 17.378906 10.613281 C 19.90625 10.25 22.449219 10.042969 25 10 C 27.550781 10.042969 30.09375 10.25 32.621094 10.613281 C 33.03125 10.667969 33.335938 11.019531 33.332031 11.4375 L 33.332031 16.667969 C 33.332031 18.507812 34.828125 20 36.667969 20 L 46.667969 20 C 48.507812 20 50 18.507812 50 16.667969 L 50 10 C 50 3.550781 41.121094 0 25 0 Z M 13.332031 18.332031 L 3.332031 18.332031 C 2.410156 18.332031 1.667969 17.585938 1.667969 16.667969 L 1.667969 15 L 15 15 L 15 16.667969 C 15 17.585938 14.253906 18.332031 13.332031 18.332031 Z M 46.667969 18.332031 L 36.667969 18.332031 C 35.746094 18.332031 35 17.585938 35 16.667969 L 35 15 L 48.332031 15 L 48.332031 16.667969 C 48.332031 17.585938 47.589844 18.332031 46.667969 18.332031 Z M 48.332031 13.332031 L 35 13.332031 L 35 11.4375 C 34.996094 10.191406 34.078125 9.136719 32.847656 8.960938 C 30.25 8.585938 27.628906 8.375 25 8.332031 C 22.375 8.375 19.75 8.585938 17.152344 8.960938 C 15.921875 9.136719 15.003906 10.191406 15 11.4375 L 15 13.332031 L 1.667969 13.332031 L 1.667969 10 C 1.667969 4.703125 10.171875 1.667969 25 1.667969 C 39.828125 1.667969 48.332031 4.703125 48.332031 10 Z M 48.332031 13.332031 "/>
</g>
</svg>
